<?xml version="1.0" encoding="utf-8"?>
<!-- Generator: Adobe Illustrator 16.0.0, SVG Export Plug-In . SVG Version: 6.00 Build 0)  -->
<!DOCTYPE svg PUBLIC "-//W3C//DTD SVG 1.1//EN" "http://www.w3.org/Graphics/SVG/1.1/DTD/svg11.dtd">
<svg version="1.1" id="Layer_1" xmlns="http://www.w3.org/2000/svg" xmlns:xlink="http://www.w3.org/1999/xlink" x="0px" y="0px"
	 width="54px" height="108px" viewBox="0 -27 54 108" enable-background="new 0 -27 54 108" xml:space="preserve">
<g>
	<defs>
		<rect id="SVGID_1_" y="-27" width="53.59" height="53.92"/>
	</defs>
	<clipPath id="SVGID_2_">
		<use xlink:href="#SVGID_1_"  overflow="visible"/>
	</clipPath>
	<path clip-path="url(#SVGID_2_)" fill="#F0644B" d="M36.423-1.827c0.472-1.496,0.815-2.587,1.161-3.678
		c0.102-0.012,0.203-0.025,0.307-0.037c0.238,1.021,0.479,2.042,0.754,3.224C37.957-2.165,37.407-2.044,36.423-1.827 M35.675-5.816
		c-0.668,1.623-1.61,3.134-2.444,4.701c-2.193-0.284-2.646-0.89-2.209-2.972l1.606-7.656c1.062,1.173,2.226,2.195,3.021,3.45
		C36.031-7.687,35.973-6.539,35.675-5.816 M34.387,6.436c-0.298,0-0.539-0.242-0.539-0.539s0.241-0.539,0.539-0.539
		c0.299,0,0.539,0.242,0.539,0.539S34.686,6.436,34.387,6.436 M10.357-3.658c1.355,0.721,2.322,1.236,3.376,1.796
		C12.148-0.789,11.852-0.937,10.357-3.658 M49.852-14.29c2.719-3.082,3.645-6.776,3.738-10.754c-0.32,0.551-0.621,1.119-0.753,1.724
		c-0.933,4.258-3.136,7.565-6.979,9.761c-1.359,0.777-2.246,0.625-2.784-0.87c-0.427-1.186-0.742-2.413-1.103-3.623
		c-0.447-1.501-0.891-3.003-1.334-4.505c-0.219,0.046-0.437,0.091-0.654,0.136c0.488,3.265,0.973,6.53,1.468,9.794
		c0.103,0.674,0.413,1.36,0.343,2.01c-0.15,1.365-1.075,1.951-2.419,1.887c-1.458-0.07-1.161-1.123-1.101-2.017
		c0.068-0.974,0.285-1.951,0.24-2.917c-0.076-1.712-0.301-3.416-0.464-5.124c-0.126,0.018-0.253,0.037-0.38,0.055
		c-0.229,2.778-0.455,5.556-0.684,8.334c-3.492-3.454-3.272-7.972-4.604-12.018c-0.164,1.679-0.328,3.358-0.516,5.281
		c-2.358-2.012-2.748,0.453-3.779,1.401c-0.603-0.488-1.161-0.943-1.851-1.504c-1.85,2.415-3.046,4.797-2.704,7.835
		c0.341,3.038,0.451,6.102,0.666,9.214c-3.265-0.468-3.271-0.534-2.222-3.17c0.778-1.955,1.666-3.928,0.836-6.197
		C22.346-7.056,21.796-4.473,19-3.744C16.325-3.047,14.191-4.567,12.224-6c0.772-1.997,2.126-3.068,4.007-3.656
		c0.901-0.282,1.735-0.901,2.49-1.503c1.348-1.075,1.784-2.161,1.707-3.919c-1.36,2.397-2.96,4.226-6.405,3.695
		c0.503-1.794,0.881-3.442,1.433-5.029c0.658-1.894,1.509-3.721,2.184-5.611c0.218-0.612,0.145-1.328,0.206-1.996
		c-0.111-0.002-0.221-0.004-0.331-0.006c-1.765,3.841-3.531,7.684-5.392,11.736c-4.748-3.642-5.497-9.139-6.975-14.71
		c-0.119,0.627-0.209,0.876-0.208,1.125c0.007,4.903,1.307,9.411,4.12,13.46c0.522,0.752,1.068,1.514,1.428,2.347
		c0.478,1.104,0.435,2.207-0.623,3.193c-0.339-0.784-0.62-1.434-0.901-2.085c-0.273,0.373-0.265,0.69-0.312,0.998
		C8.604-7.642,8.501-7.332,8.366-6.794C3.032-8.642,1.531-13.127,0-17.687C0.201-12.34,2.639-8.195,7.104-5.14
		c0.584,0.399,1.145,1.103,1.327,1.771c1.026,3.761,3.145,5.254,7.015,4.555c2.404-0.435,4.56,0.086,6.645,1.176
		c2.156,1.127,2.52,2.156,1.726,4.474c-0.202,0.592-0.326,1.229-0.362,1.854c-0.077,1.321-0.831,1.635-1.985,1.496
		c-1.021-0.125-2.075-0.43-3.063-0.289c-3.82,0.547-7.781,0.674-11.121,2.983c-0.661,0.456-1.621,1.122-1.63,1.704
		c-0.01,0.626,0.815,1.52,1.493,1.85c1.395,0.682,2.33,1.687,3.31,2.856c1.092,1.306,2.438,2.978,4.595,1.38
		c0.154-0.114,0.651,0.098,0.902,0.275c0.553,0.397,1.068,0.854,1.569,1.318c1.717,1.59,2.547,1.741,4.637,0.747
		c1.012-0.481,2.002-1.011,2.581-1.305c1.339,1.356,2.299,2.622,3.538,3.489c0.984,0.689,2.412,0.724,3.455,1.357
		c1.139,0.69,1.521,0.378,1.791-0.72c0.541-2.211,1.088-4.421,1.658-6.625c0.392-1.511,0.738-3.299,2.6-3.455
		c3.002-0.254,4.049-2.345,4.826-4.664c0.25-0.744,0.062-1.871-0.358-2.562c-1.554-2.553-3.285-4.996-4.981-7.526
		c1.494-0.451,3.043-0.753,4.442-1.385c1.745-0.789,3.521-1.659,4.995-2.852c1.287-1.045,1.768-2.692,1.175-4.566
		c-0.686,3.627-3.407,4.358-6.514,4.735c0.495-1.426,1.116-2.745,2.019-3.835C45.471-9.423,47.688-11.835,49.852-14.29"/>
</g>
<g>
	<path fill="#F3836F" d="M36.423,52.092c0.472-1.496,0.815-2.588,1.161-3.678c0.102-0.013,0.203-0.025,0.307-0.037
		c0.238,1.021,0.479,2.041,0.754,3.224C37.957,51.754,37.407,51.875,36.423,52.092 M35.675,48.103
		c-0.668,1.623-1.61,3.134-2.444,4.7c-2.193-0.283-2.646-0.889-2.209-2.971l1.606-7.656c1.062,1.172,2.226,2.195,3.021,3.449
		C36.031,46.231,35.973,47.379,35.675,48.103 M34.387,60.354c-0.298,0-0.539-0.242-0.539-0.539s0.241-0.539,0.539-0.539
		c0.299,0,0.539,0.242,0.539,0.539S34.686,60.354,34.387,60.354 M10.357,50.26c1.355,0.722,2.322,1.236,3.376,1.797
		C12.148,53.129,11.852,52.981,10.357,50.26 M49.852,39.629c2.719-3.082,3.645-6.776,3.738-10.754
		c-0.32,0.551-0.621,1.118-0.753,1.723c-0.933,4.259-3.136,7.566-6.979,9.762c-1.359,0.777-2.246,0.625-2.784-0.87
		c-0.427-1.187-0.742-2.413-1.103-3.623c-0.447-1.501-0.891-3.003-1.334-4.505c-0.219,0.046-0.437,0.092-0.654,0.137
		c0.488,3.264,0.973,6.529,1.468,9.793c0.103,0.674,0.413,1.36,0.343,2.01c-0.15,1.365-1.075,1.951-2.419,1.888
		c-1.458-0.07-1.161-1.123-1.101-2.017c0.068-0.975,0.285-1.951,0.24-2.918c-0.076-1.711-0.301-3.416-0.464-5.123
		c-0.126,0.018-0.253,0.037-0.38,0.055c-0.229,2.777-0.455,5.556-0.684,8.334c-3.492-3.454-3.272-7.973-4.604-12.018
		c-0.164,1.678-0.328,3.357-0.516,5.28c-2.358-2.012-2.748,0.453-3.779,1.401c-0.603-0.488-1.161-0.943-1.851-1.504
		c-1.85,2.414-3.046,4.797-2.704,7.834c0.341,3.039,0.451,6.103,0.666,9.215c-3.265-0.469-3.271-0.534-2.222-3.17
		c0.778-1.955,1.666-3.928,0.836-6.197c-0.467,2.501-1.017,5.084-3.813,5.812c-2.675,0.697-4.809-0.822-6.776-2.256
		c0.772-1.996,2.126-3.067,4.007-3.656c0.901-0.281,1.735-0.9,2.49-1.502c1.348-1.075,1.784-2.162,1.707-3.92
		c-1.36,2.397-2.96,4.227-6.405,3.695c0.503-1.794,0.881-3.441,1.433-5.029c0.658-1.894,1.509-3.721,2.184-5.61
		c0.218-0.612,0.145-1.328,0.206-1.996c-0.111-0.002-0.221-0.004-0.331-0.006c-1.765,3.841-3.531,7.684-5.392,11.735
		c-4.748-3.642-5.497-9.139-6.975-14.709c-0.119,0.627-0.209,0.875-0.208,1.125c0.007,4.902,1.307,9.41,4.12,13.459
		c0.522,0.752,1.068,1.515,1.428,2.348c0.478,1.104,0.435,2.207-0.623,3.193c-0.339-0.785-0.62-1.435-0.901-2.086
		c-0.273,0.373-0.265,0.69-0.312,0.998c-0.048,0.319-0.151,0.629-0.286,1.168C3.032,45.276,1.531,40.791,0,36.231
		c0.201,5.347,2.639,9.491,7.104,12.547c0.584,0.399,1.145,1.103,1.327,1.771c1.026,3.762,3.145,5.254,7.015,4.555
		c2.404-0.434,4.56,0.086,6.645,1.176c2.156,1.127,2.52,2.156,1.726,4.475c-0.202,0.592-0.326,1.229-0.362,1.854
		c-0.077,1.322-0.831,1.635-1.985,1.496c-1.021-0.125-2.075-0.43-3.063-0.289c-3.82,0.547-7.781,0.674-11.121,2.984
		c-0.661,0.455-1.621,1.121-1.63,1.703c-0.01,0.627,0.815,1.52,1.493,1.85c1.395,0.682,2.33,1.688,3.31,2.857
		c1.092,1.305,2.438,2.977,4.595,1.379c0.154-0.113,0.651,0.098,0.902,0.275c0.553,0.398,1.068,0.855,1.569,1.318
		c1.717,1.59,2.547,1.742,4.637,0.748c1.012-0.482,2.002-1.012,2.581-1.305c1.339,1.355,2.299,2.621,3.538,3.488
		c0.984,0.689,2.412,0.725,3.455,1.357c1.139,0.691,1.521,0.379,1.791-0.719c0.541-2.211,1.088-4.422,1.658-6.625
		c0.392-1.512,0.738-3.299,2.6-3.455c3.002-0.254,4.049-2.346,4.826-4.664c0.25-0.744,0.062-1.871-0.358-2.562
		c-1.554-2.553-3.285-4.996-4.981-7.525c1.494-0.451,3.043-0.754,4.442-1.386c1.745-0.788,3.521-1.659,4.995-2.853
		c1.287-1.045,1.768-2.691,1.175-4.565c-0.686,3.627-3.407,4.358-6.514,4.735c0.495-1.426,1.116-2.745,2.019-3.835
		C45.471,44.496,47.688,42.084,49.852,39.629"/>
</g>
</svg>
