<?xml version="1.0" standalone="no"?>
<!DOCTYPE svg PUBLIC "-//W3C//DTD SVG 1.1//EN" "http://www.w3.org/Graphics/SVG/1.1/DTD/svg11.dtd" >
<svg xmlns="http://www.w3.org/2000/svg">
<metadata></metadata>
<defs>
<font id="gasparbold" horiz-adv-x="356" >
<font-face units-per-em="1000" ascent="800" descent="-200" />
<missing-glyph horiz-adv-x="263" />
<glyph unicode="&#xfb01;" horiz-adv-x="601" d="M44 381v85h58v80q0 68 41.5 107.5t112.5 39.5q40 0 83 -16l-22 -83q-23 8 -43 8q-57 0 -57 -72v-64h300v-381q34 -4 52 -10l-20 -75h-177l-20 75q16 5 51 10v296h-186v-296q36 -4 55 -10l-20 -75h-181l-20 75q18 6 51 10v296h-58zM386 601q0 31 21.5 52.5t52.5 21.5 t52.5 -21.5t21.5 -52.5t-21.5 -52.5t-52.5 -21.5t-52.5 21.5t-21.5 52.5z" />
<glyph unicode="&#xfb02;" horiz-adv-x="620" d="M44 381v85h58v80q0 68 42 107.5t113 39.5q79 0 159 -34v22h114v-596q35 -5 51 -10l-20 -75h-177l-20 75q18 6 52 10v486q-65 31 -129 31q-38 0 -54 -17.5t-16 -54.5v-64h113l-23 -85h-90v-296q36 -4 55 -10l-20 -75h-181l-20 75q18 6 51 10v296h-58z" />
<glyph horiz-adv-x="1000" />
<glyph horiz-adv-x="1000" />
<glyph unicode="&#xd;" horiz-adv-x="1000" />
<glyph unicode=" "  horiz-adv-x="263" />
<glyph unicode="&#x09;" horiz-adv-x="263" />
<glyph unicode="&#xa0;" horiz-adv-x="263" />
<glyph unicode="!" horiz-adv-x="334" d="M83 72q0 34 24.5 59t59.5 25t59.5 -24.5t24.5 -59.5t-24.5 -59.5t-59.5 -24.5t-59.5 24.5t-24.5 59.5zM106 681h122l-15 -438h-92z" />
<glyph unicode="&#x22;" horiz-adv-x="436" d="M31 463l58 218h131l-118 -218h-71zM216 463l58 218h131l-118 -218h-71z" />
<glyph unicode="#" horiz-adv-x="494" d="M32 142v72h71l25 180h-61v72h71l29 204h78l-29 -204h112l28 204h78l-28 -204h60v-72h-71l-25 -180h61v-72h-71l-24 -172h-78l24 172h-111l-25 -172h-78l25 172h-61zM181 214h111l25 180h-111z" />
<glyph unicode="$" horiz-adv-x="501" d="M51 22v92l75 20q7 -22 10 -51q45 -12 84 -12q59 0 87 28.5t28 75.5q0 29 -15 47.5t-39 28.5t-53 18.5t-58 21t-53 31.5t-39 55.5t-15 88.5q0 65 40.5 108t103.5 52v77h86v-78q64 -8 139 -34v-87l-75 -20q-7 25 -10 51q-40 10 -84 10q-36 0 -60.5 -20.5t-24.5 -57.5 q0 -33 15 -54t39 -31.5t53 -18.5t58 -20t53 -30t39 -53t15 -86q0 -80 -42.5 -127t-114.5 -57v-77h-86v76q-79 4 -156 33z" />
<glyph unicode="%" horiz-adv-x="806" d="M28 488q0 90 25 131q30 51 127 51q95 0 127 -51q25 -41 25 -131q0 -88 -25 -131q-32 -51 -127 -51q-97 0 -127 51q-25 43 -25 131zM105 488q0 -55 14.5 -81.5t60.5 -26.5t60 26t14 82t-14 82t-60 26q-47 0 -62 -31q-13 -25 -13 -77zM159 -12l398 682h90l-399 -682h-89z M474 170q0 90 25 131q30 51 127 51q92 0 122 -42.5t30 -139.5q0 -96 -30 -139t-122 -43q-97 0 -127 51q-25 43 -25 131zM551 170q0 -55 14.5 -81.5t60.5 -26.5t60 26t14 82t-14 82t-60 26q-47 0 -62 -31q-13 -25 -13 -77z" />
<glyph unicode="&#x26;" horiz-adv-x="580" d="M47 195q0 37 1.5 58t10 49t25.5 50q30 38 87 47q-30 48 -30 104q0 54 45.5 90t105.5 36q58 0 157 -30v-92l-75 -20q-6 19 -10 51q-24 7 -46 7q-24 0 -43.5 -18t-19.5 -44q0 -21 14 -48l232 -350q36 -4 55 -10l-20 -75h-98l-19 30q-116 -42 -203 -42q-94 0 -134 50 q-16 23 -24.5 51.5t-9.5 48t-1 57.5zM161 199q0 -80 34 -103q51 -35 165 11l-134 209q-36 -10 -50.5 -37.5t-14.5 -79.5z" />
<glyph unicode="'" horiz-adv-x="251" d="M31 463l58 218h131l-118 -218h-71z" />
<glyph unicode="(" horiz-adv-x="379" d="M71 228q0 227 44 333q26 66 77 99t144 33v-87q-95 0 -124 -108q-24 -87 -24 -270q0 -184 24 -270q30 -108 124 -108v-87q-93 0 -144 33t-77 99q-44 106 -44 333z" />
<glyph unicode=")" horiz-adv-x="379" d="M43 -150q94 0 124 108q24 86 24 270q0 183 -24 270q-29 108 -124 108v87q93 0 143.5 -33t77.5 -99q44 -106 44 -333t-44 -333q-27 -66 -77.5 -99t-143.5 -33v87z" />
<glyph unicode="*" horiz-adv-x="512" d="M74 512l27 77l113 -44v125h80v-125l117 44l27 -77l-119 -39l75 -98l-67 -49l-74 103l-70 -103l-67 49l74 98z" />
<glyph unicode="+" horiz-adv-x="461" d="M15 202v86h173v173h86v-173h172v-86h-172v-172h-86v172h-173z" />
<glyph unicode="," horiz-adv-x="283" d="M41 -94l58 218h131l-118 -218h-71z" />
<glyph unicode="-" d="M42 196v98h272v-98h-272z" />
<glyph unicode="." horiz-adv-x="274" d="M63 62q0 31 21.5 52.5t52.5 21.5t52.5 -21.5t21.5 -52.5t-21.5 -52.5t-52.5 -21.5t-52.5 21.5t-21.5 52.5z" />
<glyph unicode="/" horiz-adv-x="457" d="M-8 -225l335 918h92l-335 -918h-92z" />
<glyph unicode="0" horiz-adv-x="528" d="M33 324q0 163 38 240q23 48 67.5 72t125.5 24t125.5 -24.5t67.5 -71.5q38 -75 38 -240q0 -166 -38 -241q-23 -47 -67.5 -71t-125.5 -24t-125.5 24t-67.5 71q-38 77 -38 241zM152 324q0 -124 18 -178q23 -70 94 -70q39 0 60.5 17.5t32.5 52.5q19 57 19 178t-19 178 q-11 35 -32.5 52.5t-60.5 17.5q-72 0 -94 -70q-18 -54 -18 -178z" />
<glyph unicode="1" horiz-adv-x="337" d="M61 75q18 6 51 10v478q-28 4 -51 11l20 74h144v-563q35 -5 51 -10l-20 -75h-175z" />
<glyph unicode="2" horiz-adv-x="509" d="M50 0v91l252 315q31 37 31 90q0 34 -17.5 49.5t-55.5 15.5q-55 0 -117 -18q-4 -36 -10 -55l-73 19v112q130 41 210 41q92 0 135 -45t43 -114q0 -48 -10.5 -82.5t-41.5 -76.5l-193 -240h256v-102h-409z" />
<glyph unicode="3" horiz-adv-x="503" d="M40 513v108q131 39 211 39t127 -39t47 -102q0 -56 -14.5 -94.5t-59.5 -58.5q53 -13 73.5 -57t20.5 -127q0 -194 -194 -194q-96 0 -200 30l21 79q89 -21 142 -21q62 0 87 33t25 79q0 63 -24 94.5t-86 31.5h-98v91h109q41 0 63.5 25.5t22.5 62.5q0 35 -15 54.5t-60 19.5 q-53 0 -115 -18q-4 -35 -10 -55z" />
<glyph unicode="4" horiz-adv-x="520" d="M24 176v94l246 378h152v-378h74v-94h-74v-91q35 -5 51 -10l-20 -75h-177l-20 75q19 6 55 10v91h-287zM142 270h169v271z" />
<glyph unicode="5" horiz-adv-x="471" d="M52 11l21 80q60 -15 115 -15q62 0 87 33t25 79q0 63 -24 94.5t-86 31.5h-120v334h329v-128l-73 -19q-6 20 -10 55h-135v-148h60q96 0 137 -59t41 -167q0 -194 -194 -194q-83 0 -173 23z" />
<glyph unicode="6" horiz-adv-x="506" d="M49 218v85q0 104 10 163t46 112q60 82 196 82q58 0 124 -16l-23 -89q-40 7 -64.5 10t-54.5 -0.5t-54 -15.5q-61 -31 -61 -157q72 16 120 16q177 0 177 -212q0 -102 -49 -155t-160 -53q-105 0 -153 45q-31 27 -42 72t-12 113zM166 177q0 -40 20.5 -68t70.5 -28q29 0 48 10 t27.5 30.5t11 39t2.5 46.5q0 53 -18 79t-64 26q-43 0 -98 -19v-116z" />
<glyph unicode="7" horiz-adv-x="492" d="M32 520v128h409v-92l-207 -556h-122l207 556h-204q-4 -35 -10 -55z" />
<glyph unicode="8" horiz-adv-x="490" d="M29 189q0 75 20 118.5t66 63.5q-65 32 -65 135q0 83 42.5 118.5t152.5 35.5t152.5 -35.5t42.5 -118.5q0 -104 -65 -135q46 -20 66 -63.5t20 -118.5q0 -106 -47.5 -153.5t-168.5 -47.5t-168.5 47.5t-47.5 153.5zM146 198q0 -61 22 -89.5t77 -28.5t77 28.5t22 89.5 q0 64 -22 90.5t-77 26.5t-77 -26.5t-22 -90.5zM166 490q0 -49 19.5 -64t59.5 -15t59.5 15t19.5 64q0 42 -17.5 61t-61.5 19t-61.5 -19t-17.5 -61z" />
<glyph unicode="9" horiz-adv-x="503" d="M41 451q0 103 48 156t157 53q103 0 151 -45q30 -28 41 -73t12 -112v-86q0 -103 -10 -162.5t-46 -111.5q-57 -82 -192 -82q-62 0 -134 18l23 89q42 -8 66.5 -11t58 -0.5t57.5 15.5q60 30 60 157q-64 -16 -119 -16q-94 0 -133.5 56t-39.5 155zM160 441q0 -53 17.5 -79.5 t61.5 -26.5q40 0 94 19v117q0 95 -87 95q-53 0 -69.5 -33.5t-16.5 -91.5z" />
<glyph unicode=":" horiz-adv-x="274" d="M63 62q0 31 21.5 52.5t52.5 21.5t52.5 -21.5t21.5 -52.5t-21.5 -52.5t-52.5 -21.5t-52.5 21.5t-21.5 52.5zM63 392q0 31 21.5 52.5t52.5 21.5t52.5 -21.5t21.5 -52.5t-21.5 -52.5t-52.5 -21.5t-52.5 21.5t-21.5 52.5z" />
<glyph unicode=";" horiz-adv-x="285" d="M39 -94l58 218h131l-118 -218h-71zM84 392q0 31 21.5 52.5t52.5 21.5t52.5 -21.5t21.5 -52.5t-21.5 -52.5t-52.5 -21.5t-52.5 21.5t-21.5 52.5z" />
<glyph unicode="&#x3c;" horiz-adv-x="524" d="M41 159v106l431 171v-74l-378 -150l378 -150v-74z" />
<glyph unicode="=" horiz-adv-x="463" d="M16 122v86h431v-86h-431zM16 282v86h431v-86h-431z" />
<glyph unicode="&#x3e;" horiz-adv-x="524" d="M52 -12v74l378 150l-378 150v74l431 -171v-106z" />
<glyph unicode="?" horiz-adv-x="422" d="M41 562v95q92 26 164 26q97 0 139 -46q17 -20 26 -44t10 -40.5t1 -46.5q0 -28 -1 -44.5t-10 -43t-27 -45.5q-29 -31 -79 -40v-90h-104v153h22q42 0 60 12q25 16 25 91q0 71 -24 89q-19 12 -44 12q-35 0 -73 -6q-3 -29 -10 -52zM128 72q0 35 24.5 59.5t59.5 24.5 t59.5 -24.5t24.5 -59.5t-24.5 -59.5t-59.5 -24.5t-59.5 24.5t-24.5 59.5z" />
<glyph unicode="@" horiz-adv-x="730" d="M105 -12v326q0 153 43 226q27 44 77 66.5t142 22.5q91 0 141.5 -22.5t76.5 -66.5q43 -73 43 -226v-229q36 -4 55 -10l-20 -75h-132v18q-68 -30 -109 -30q-35 0 -60.5 11t-41 28.5t-25 44t-13 53.5t-3.5 61q0 46 2.5 77.5t11 64.5t23.5 52.5t41.5 32t64.5 12.5 q46 0 91 -24q-10 74 -40 109t-107 35q-94 0 -127 -67q-25 -54 -25 -168v-322h-109zM393 197q0 -115 56 -115q24 0 70 19v210q-37 23 -60 23q-40 0 -53 -33t-13 -104z" />
<glyph unicode="A" horiz-adv-x="672" d="M9 81q24 7 56 11l184 578h170l189 -578q31 -4 55 -11l-21 -81h-192l-22 82q17 6 50 10l-32 99h-235l-28 -99q33 -4 50 -10l-22 -82h-180zM236 282h181l-97 305z" />
<glyph unicode="B" horiz-adv-x="606" d="M53 81q24 7 56 11v487q-30 2 -56 11l22 80h276q91 0 145 -39t54 -124q0 -70 -20.5 -106.5t-71.5 -50.5q58 -10 87.5 -46t29.5 -109q0 -108 -48 -151.5t-151 -43.5h-301zM231 91h133q38 0 60 28.5t22 73.5q0 47 -24.5 74.5t-63.5 27.5h-127v-204zM231 386h118q35 0 54 27 t19 70q0 97 -73 97h-118v-194z" />
<glyph unicode="C" horiz-adv-x="547" d="M40 335q0 62 2.5 97.5t15.5 82t39 83.5q62 85 205 85q85 0 209 -36v-110l-102 -28q-11 32 -14 71q-51 12 -101 12q-47 0 -80 -38q-20 -25 -31 -67.5t-12.5 -72.5t-1.5 -79t1.5 -79t12.5 -72.5t31 -67.5q33 -37 83 -37q81 0 202 37l23 -87q-134 -41 -220 -41 q-143 0 -205 85q-26 37 -39 84t-15.5 82.5t-2.5 95.5z" />
<glyph unicode="D" horiz-adv-x="667" d="M53 81q24 7 56 11v487q-30 2 -56 11l22 80h306q135 0 192 -81q24 -36 36.5 -81t15 -79.5t2.5 -93.5q0 -58 -2.5 -92.5t-15 -79.5t-36.5 -81q-57 -82 -192 -82h-306zM231 91h105q62 0 104 36q26 24 40 63.5t16.5 69t2.5 75.5q0 33 -1.5 55.5t-6.5 53t-18 55.5t-33 44 q-44 36 -104 36h-105v-488z" />
<glyph unicode="E" horiz-adv-x="564" d="M53 81q24 7 56 11v487q-30 2 -56 11l22 80h450v-133l-102 -28q-11 35 -14 70h-178v-193h147q4 31 11 55l81 -21v-159l-81 -22q-7 24 -11 56h-147v-204h186q4 37 14 70l102 -27v-134h-458z" />
<glyph unicode="F" horiz-adv-x="541" d="M53 81q24 7 56 11v487q-30 2 -56 11l22 80h435v-133l-102 -28q-11 35 -14 70h-163v-193h132q4 31 11 55l81 -21v-159l-81 -22q-7 24 -11 56h-132v-203q34 -4 61 -11l-22 -81h-195z" />
<glyph unicode="G" horiz-adv-x="580" d="M40 335q0 62 2.5 97.5t15.5 82t39 83.5q62 85 205 85q94 0 227 -42v-109l-102 -27q-11 37 -14 70q-57 17 -118 17q-48 0 -81 -38q-20 -25 -31 -67.5t-12.5 -72.5t-1.5 -79t1.5 -79t12.5 -72.5t31 -67.5q33 -38 81 -38q60 0 127 20v144q-35 4 -60 11l21 81h161v-301 q-135 -45 -242 -45q-143 0 -205 85q-26 37 -39 84t-15.5 82.5t-2.5 95.5z" />
<glyph unicode="H" horiz-adv-x="712" d="M53 81q24 7 56 11v487q-30 2 -56 11l22 80h190l22 -80q-26 -9 -56 -11v-193h250v193q-29 2 -55 11l22 80h189l22 -80q-26 -9 -56 -11v-487q32 -4 56 -11l-22 -81h-189l-22 81q24 7 55 11v203h-250v-203q32 -4 56 -11l-22 -81h-190z" />
<glyph unicode="I" horiz-adv-x="336" d="M51 81q24 7 56 11v487q-30 2 -56 11l22 80h190l22 -80q-26 -9 -56 -11v-487q32 -4 56 -11l-22 -81h-190z" />
<glyph unicode="J" horiz-adv-x="411" d="M21 -2l24 88q82 -14 112 6q28 18 28 77v410q-39 4 -61 11l22 80h195l21 -80q-26 -9 -55 -11v-419q0 -103 -78 -147q-70 -39 -208 -15z" />
<glyph unicode="K" horiz-adv-x="675" d="M53 81q24 7 56 11v487q-30 2 -56 11l22 80h190l22 -80q-26 -9 -56 -11v-193h65l147 193q-22 2 -49 9l22 82h189l21 -80q-26 -9 -55 -11l-172 -226l200 -261q31 -4 55 -11l-21 -81h-115l-225 295h-62v-203q32 -4 56 -11l-22 -81h-190z" />
<glyph unicode="L" horiz-adv-x="523" d="M53 81q24 7 56 11v487q-30 2 -56 11l22 80h190l22 -80q-26 -9 -56 -11v-488h155q4 37 14 70l102 -27v-134h-427z" />
<glyph unicode="M" horiz-adv-x="844" d="M45 81q24 7 56 11v487q-30 2 -56 11l22 80h200l156 -411l155 411h200l21 -80q-26 -9 -55 -11v-487q31 -4 55 -11l-21 -81h-173l-22 81q24 7 56 11v454l-156 -412h-121l-156 412v-454q32 -4 56 -11l-22 -81h-173z" />
<glyph unicode="N" horiz-adv-x="757" d="M45 81q24 7 56 11v487q-30 2 -56 11l22 80h195l293 -544v453q-29 2 -55 11l21 80h173l22 -80q-26 -9 -56 -11v-579h-161l-293 544v-452q32 -4 56 -11l-22 -81h-173z" />
<glyph unicode="O" horiz-adv-x="639" d="M40 335q0 171 46 249q29 49 82.5 74t150.5 25q98 0 151.5 -25t82.5 -74q46 -78 46 -249q0 -169 -46 -249q-29 -49 -82.5 -73.5t-151.5 -24.5t-151 24.5t-82 73.5q-46 78 -46 249zM169 335q0 -125 25 -184q15 -36 43.5 -54t81.5 -18q96 0 126 72q25 59 25 184t-25 184 q-15 36 -44 54.5t-82 18.5t-81.5 -18.5t-43.5 -54.5q-25 -59 -25 -184z" />
<glyph unicode="P" horiz-adv-x="583" d="M53 81q24 7 56 11v487q-30 2 -56 11l22 80h284q203 0 203 -174q0 -57 -3 -91t-14 -69.5t-33 -54t-59.5 -30t-93.5 -11.5h-128v-148q34 -4 61 -11l-22 -81h-194zM231 330h100q62 0 82 36.5t20 102.5q0 111 -102 111h-100v-250z" />
<glyph unicode="Q" horiz-adv-x="639" d="M40 335q0 171 46 249q29 49 82.5 74t150.5 25q98 0 151.5 -25t82.5 -74q46 -78 46 -249q0 -130 -28 -211.5t-105 -112.5l111 -71l-78 -97l-180 145q-98 0 -151 24.5t-82 73.5q-46 78 -46 249zM169 335q0 -125 25 -184q15 -36 43.5 -54t81.5 -18q96 0 126 72q25 59 25 184 t-25 184q-15 36 -44 54.5t-82 18.5t-81.5 -18.5t-43.5 -54.5q-25 -59 -25 -184z" />
<glyph unicode="R" horiz-adv-x="604" d="M53 81q24 7 56 11v487q-30 2 -56 11l22 80h272q203 0 203 -164q0 -43 -1 -66.5t-6.5 -53.5t-16 -47.5t-30.5 -34.5t-49 -28l76 -184q32 -4 56 -11l-22 -81h-129l-106 266h-91v-174q32 -4 56 -11l-22 -81h-190zM231 355h88q33 0 54.5 10t31.5 29t13.5 38.5t3.5 47.5 q0 48 -27.5 74.5t-75.5 26.5h-88v-226z" />
<glyph unicode="S" horiz-adv-x="557" d="M31 22v111l102 28q10 -32 14 -71q68 -11 104 -11q74 0 110 31t36 82q0 36 -25.5 58t-63.5 30.5t-83 23t-83 33t-63.5 61.5t-25.5 108q0 81 64.5 129t159.5 48q104 0 223 -36v-107l-102 -27q-10 35 -13 70q-47 9 -95 9q-45 0 -76.5 -23t-31.5 -62q0 -41 25.5 -65.5 t63.5 -34t83 -23t83 -30.5t63.5 -59t25.5 -105q0 -99 -67.5 -150.5t-180.5 -51.5q-134 0 -247 34z" />
<glyph unicode="T" horiz-adv-x="585" d="M13 536v134h559v-134l-102 -28q-10 34 -14 71h-103v-487q32 -4 56 -11l-22 -81h-190l-21 81q24 7 55 11v487h-102q-4 -37 -14 -71z" />
<glyph unicode="U" horiz-adv-x="704" d="M49 590l22 80h190l22 -80q-26 -9 -56 -11v-381q0 -119 125 -119t125 119v381q-29 2 -55 11l22 80h189l22 -80q-26 -9 -56 -11v-430q0 -71 -63 -116t-184 -45t-184 45t-63 116v430q-30 2 -56 11z" />
<glyph unicode="V" horiz-adv-x="685" d="M17 590l22 80h191l22 -82q-27 -7 -50 -9l153 -471l136 471q-23 2 -50 9l22 82h184l21 -80q-26 -9 -55 -11l-188 -579h-164l-188 579q-30 2 -56 11z" />
<glyph unicode="W" horiz-adv-x="976" d="M17 590l22 80h185l23 -82q-27 -7 -50 -9l116 -457l103 548h160l105 -548l114 457q-24 2 -49 9l22 82h169l22 -80q-26 -9 -56 -11l-164 -579h-143l-104 549l-108 -549h-147l-164 579q-30 2 -56 11z" />
<glyph unicode="X" horiz-adv-x="697" d="M21 81q24 7 56 11l194 254l-178 233q-29 2 -55 11l21 80h210l22 -82q-27 -7 -50 -9l122 -160l113 160q-23 2 -50 9l22 82h189l22 -80q-26 -9 -56 -11l-177 -233l194 -254q32 -4 56 -11l-22 -81h-210l-22 82q17 6 50 10l-139 182l-129 -182q33 -4 50 -10l-23 -82h-188z " />
<glyph unicode="Y" horiz-adv-x="729" d="M17 590l22 80h209l22 -82q-27 -8 -49 -9l160 -210l147 210q-22 2 -49 9l22 82h189l22 -80q-28 -9 -56 -11l-231 -303v-184q32 -4 56 -11l-22 -81h-195l-21 81q27 7 60 11v184l-230 303q-30 2 -56 11z" />
<glyph unicode="Z" horiz-adv-x="535" d="M29 0v107l325 457h-191q-4 -42 -14 -70l-101 27v149h450v-106l-319 -457h211q4 36 14 70l102 -28v-149h-477z" />
<glyph unicode="[" horiz-adv-x="362" d="M101 -225v906h216v-90h-107v-726h107v-90h-216z" />
<glyph unicode="]" horiz-adv-x="362" d="M45 -135h107v726h-107v90h216v-906h-216v90z" />
<glyph unicode="_" horiz-adv-x="475" d="M0 -71h475v-41h-475v41z" />
<glyph unicode="a" horiz-adv-x="493" d="M31 128q0 91 58 136q62 47 213 15v16q0 21 -0.5 31t-3.5 25t-9.5 22.5t-19 13t-31.5 5.5q-57 0 -144 -29l-22 82q97 33 172 33q173 0 173 -163v-230q35 -5 51 -10l-20 -75h-141v27q-83 -33 -123 -37q-14 -2 -29 -2q-55 0 -89.5 35.5t-34.5 104.5zM150 143q0 -25 14.5 -42 t38.5 -17q14 0 29.5 3.5t39 12t30.5 10.5v84q-89 22 -123 1q-29 -18 -29 -52z" />
<glyph unicode="b" horiz-adv-x="512" d="M29 606l20 75h146v-227q65 24 112 24q52 0 88 -17.5t54 -50.5t25.5 -69.5t7.5 -84.5q0 -135 -41.5 -202t-133.5 -67q-111 0 -227 31v578q-25 2 -51 10zM195 79q41 -9 80 -9q21 0 36 6t24 20t14.5 27.5t8 38t3 40.5t0.5 45q0 146 -76 146q-35 0 -90 -22v-292z" />
<glyph unicode="c" horiz-adv-x="427" d="M30 233q0 150 61 203q48 42 131 42q76 0 171 -32v-114h-75q-7 21 -10 52q-45 10 -78 10q-27 0 -49 -20q-30 -35 -30 -143q0 -106 28 -139q21 -19 49 -19q59 0 154 33l22 -82q-103 -36 -182 -36q-71 0 -113 27q-45 28 -62 80t-17 138z" />
<glyph unicode="d" horiz-adv-x="522" d="M30 210q0 52 3 87t13 72t28.5 59t51 36t78.5 14q53 0 113 -29v147q-26 2 -52 10l20 75h147v-596q35 -5 51 -10l-20 -75h-135v18q-81 -30 -124 -30q-52 0 -88 17.5t-54 50.5t-25 69.5t-7 84.5zM151 219q0 -146 75 -146q34 0 91 22v272q-45 26 -78 26q-54 0 -71 -41.5 t-17 -132.5z" />
<glyph unicode="e" horiz-adv-x="448" d="M30 233q0 125 46.5 185t148.5 60t148.5 -60t46.5 -185v-39h-270q0 -121 81 -121q52 0 162 38l22 -82q-115 -41 -190 -41q-84 0 -128 35q-40 31 -53.5 77t-13.5 133zM150 279h152q0 44 -17.5 79t-59.5 35q-29 0 -46.5 -20t-23 -43.5t-5.5 -50.5z" />
<glyph unicode="f" horiz-adv-x="357" d="M44 381v85h58v80q0 68 41.5 107.5t112.5 39.5q41 0 100 -22l-22 -82q-36 13 -60 13q-57 0 -57 -72v-64h113l-23 -85h-90v-296q36 -4 55 -10l-20 -75h-181l-20 75q18 6 51 10v296h-58z" />
<glyph unicode="g" horiz-adv-x="522" d="M30 210q0 52 3 87t13 72t28.5 59t51 36t78.5 14q54 0 124 -34v22h135l20 -75q-16 -5 -51 -10v-455q0 -163 -172 -163q-83 0 -199 46l22 82q110 -42 170 -42q19 0 31.5 5.5t19 13t9.5 23t3.5 25.5t0.5 31v66q-75 -25 -113 -25q-52 0 -88 17.5t-54 50.5t-25 69.5t-7 84.5z M151 219q0 -146 75 -146q34 0 91 22v272q-45 26 -78 26q-54 0 -71 -41.5t-17 -132.5z" />
<glyph unicode="h" horiz-adv-x="561" d="M44 75q18 6 51 10v511q-25 2 -51 10l20 75h146v-250q94 47 143 47q64 0 97.5 -32.5t33.5 -94.5v-266q35 -5 52 -10l-20 -75h-147v321q0 22 -11 39.5t-39 17.5q-38 0 -109 -32v-261q33 -4 51 -10l-20 -75h-177z" />
<glyph unicode="i" horiz-adv-x="288" d="M39 75q18 6 51 10v296q-33 4 -51 10l20 75h146v-381q33 -4 51 -10l-20 -75h-177zM73 601q0 31 22 52.5t52 21.5q31 0 53 -21.5t22 -52.5t-22 -52.5t-53 -21.5q-30 0 -52 21.5t-22 52.5z" />
<glyph unicode="j" horiz-adv-x="302" d="M39 -144q79 -14 79 70v455q-35 5 -51 10l20 75h146v-556q0 -73 -50.5 -115t-143.5 -28v89zM101 601q0 31 21.5 52.5t52.5 21.5t52.5 -21.5t21.5 -52.5t-21.5 -52.5t-52.5 -21.5t-52.5 21.5t-21.5 52.5z" />
<glyph unicode="k" horiz-adv-x="534" d="M44 75q18 6 51 10v511q-25 2 -51 10l20 75h146v-402h67l63 102q-18 1 -45 8l20 77h169l20 -75q-18 -6 -52 -10l-92 -135l110 -161q34 -4 52 -10l-20 -75h-103l-132 194h-57v-109q33 -4 51 -10l-20 -75h-177z" />
<glyph unicode="l" horiz-adv-x="300" d="M44 75q18 6 51 10v511q-25 2 -51 10l20 75h146v-596q33 -4 51 -10l-20 -75h-177z" />
<glyph unicode="m" horiz-adv-x="790" d="M39 75q18 6 51 10v296q-33 4 -51 10l20 75h140v-38q92 50 138 50q80 0 108 -55q99 55 146 55q60 0 91 -32.5t31 -94.5v-266q35 -5 52 -10l-20 -75h-147v321q0 57 -44 57q-36 0 -95 -32v-261q35 -5 51 -10l-20 -75h-146v321q0 21 -10 39t-34 18q-36 0 -95 -32v-261 q33 -4 51 -10l-20 -75h-177z" />
<glyph unicode="n" horiz-adv-x="556" d="M39 75q18 6 51 10v296q-33 4 -51 10l20 75h140v-38q100 50 149 50q64 0 97.5 -32.5t33.5 -94.5v-266q35 -5 52 -10l-20 -75h-147v321q0 22 -11 39.5t-39 17.5q-38 0 -109 -32v-261q33 -4 51 -10l-20 -75h-177z" />
<glyph unicode="o" horiz-adv-x="476" d="M30 233q0 119 34 176q43 69 174 69t174 -69q34 -57 34 -176t-34 -176q-43 -69 -174 -69t-174 69q-34 57 -34 176zM151 233q0 -78 14 -115q18 -45 73 -45t73 45q14 37 14 115t-14 115q-18 45 -73 45t-73 -45q-14 -37 -14 -115z" />
<glyph unicode="p" horiz-adv-x="522" d="M39 -150q26 8 51 10v521q-33 4 -51 10l20 75h134v-18q81 30 124 30q52 0 88 -17.5t54 -50.5t25.5 -69.5t7.5 -84.5q0 -52 -3 -87t-13.5 -72t-29 -59t-51 -36t-78.5 -14q-54 0 -112 29v-157q25 -2 51 -10l-20 -75h-177zM205 99q45 -26 78 -26q54 0 71 42t17 132 q0 146 -76 146q-35 0 -90 -22v-272z" />
<glyph unicode="q" horiz-adv-x="515" d="M30 210q0 52 3 87t13 72t28.5 59t51 36t78.5 14q54 0 124 -34v22h104v-606q26 -2 51 -10l-20 -75h-178l-20 75q26 8 52 10v153q-75 -25 -113 -25q-52 0 -88 17.5t-54 50.5t-25 69.5t-7 84.5zM151 219q0 -146 75 -146q34 0 91 22v272q-45 26 -78 26q-54 0 -71 -41.5 t-17 -132.5z" />
<glyph unicode="r" horiz-adv-x="346" d="M39 75q18 6 51 10v296q-33 4 -51 10l20 75h140v-34q94 46 137 46v-103q-75 0 -131 -25v-265q36 -4 55 -10l-20 -75h-181z" />
<glyph unicode="s" horiz-adv-x="415" d="M30 28v110h75q7 -21 10 -52q50 -13 84 -13q65 0 65 57q0 27 -23 43.5t-56 26t-66 22.5t-56 42.5t-23 76.5q0 66 49.5 101.5t112.5 35.5q65 0 168 -35v-109h-75q-7 21 -10 52q-35 8 -63 8q-27 0 -44 -13t-17 -35q0 -27 23 -42.5t56 -25t66 -22t56 -43t23 -79.5 q0 -76 -47.5 -111t-112.5 -35q-73 0 -195 40z" />
<glyph unicode="t" horiz-adv-x="344" d="M32 381v85h58v113h115v-113h125l-23 -85h-102v-230q0 -72 57 -72q25 0 49 9l22 -82q-49 -18 -89 -18q-71 0 -112.5 39.5t-41.5 106.5v247h-58z" />
<glyph unicode="u" horiz-adv-x="554" d="M30 391l20 75h146v-321q0 -21 11 -39t38 -18q39 0 110 32v261q-35 5 -51 10l20 75h146v-381q35 -5 52 -10l-20 -75h-141v38q-100 -50 -149 -50q-64 0 -97.5 32.5t-33.5 94.5v266q-33 4 -51 10z" />
<glyph unicode="v" horiz-adv-x="535" d="M8 391l20 75h119l130 -356l89 271q-18 1 -45 8l20 77h166l20 -75q-16 -5 -51 -10l-139 -381h-136l-142 381q-33 4 -51 10z" />
<glyph unicode="w" horiz-adv-x="775" d="M8 391l20 75h120l105 -361l63 361h150l72 -361l73 276q-18 1 -45 8l20 77h161l20 -75q-17 -5 -52 -10l-119 -381h-136l-71 361l-70 -361h-140l-120 381q-33 4 -51 10z" />
<glyph unicode="x" horiz-adv-x="487" d="M12 75q18 6 51 10l108 154l-99 142q-34 4 -52 10l20 75h100l116 -166l53 81q-18 1 -45 8l20 77h163l20 -75q-18 -6 -51 -10l-100 -142l108 -154q35 -5 51 -10l-20 -75h-99l-125 179l-61 -94q18 -1 45 -8l-20 -77h-163z" />
<glyph unicode="y" horiz-adv-x="535" d="M8 391l20 75h122l127 -348l86 263q-18 1 -45 8l20 77h169l20 -75q-16 -5 -51 -10l-191 -522q-19 -46 -59 -71t-94 -25q-50 0 -109 26l22 82q53 -21 81 -21q39 0 58 42l40 108h-23l-142 381q-33 4 -51 10z" />
<glyph unicode="z" horiz-adv-x="434" d="M27 0v78l239 294h-143q-3 -29 -11 -55h-73v149h359v-92l-223 -280h149q4 34 10 55h73v-149h-380z" />
<glyph unicode="{" horiz-adv-x="379" d="M71 191v44q43 1 56 12t13 39q0 18 -11 102.5t-11 134.5q0 160 218 160v-87q-63 0 -88.5 -25.5t-25.5 -80.5q0 -42 13.5 -126t13.5 -106q0 -16 -9 -30t-27 -14q18 0 28.5 -12.5t10.5 -26.5q0 -21 -15.5 -98t-15.5 -120q0 -61 27.5 -89t87.5 -28v-87q-216 0 -216 174 q0 64 10 131t10 82q0 27 -13.5 38.5t-55.5 12.5z" />
<glyph unicode="|" horiz-adv-x="288" d="M101 -237v990h86v-990h-86z" />
<glyph unicode="}" horiz-adv-x="379" d="M43 -160q60 0 87.5 28t27.5 89q0 43 -15.5 120t-15.5 98q0 15 10 27t28 12q-18 0 -27 14t-9 30q0 22 14 106t14 126q0 55 -25.5 80.5t-88.5 25.5v87q217 0 217 -160q0 -50 -11 -134.5t-11 -102.5q0 -27 13.5 -38.5t56.5 -12.5v-44q-42 -1 -56 -12.5t-14 -38.5 q0 -15 10 -82t10 -131q0 -84 -50.5 -129t-164.5 -45v87z" />
<glyph unicode="&#xa1;" horiz-adv-x="334" d="M83 394q0 35 24.5 59.5t59.5 24.5t59.5 -24.5t24.5 -59.5t-24.5 -59.5t-59.5 -24.5t-59.5 25t-24.5 59zM106 -215l15 438h92l15 -438h-122z" />
<glyph unicode="&#xa9;" horiz-adv-x="837" d="M71 335q0 144 102 246t245 102q144 0 246 -102t102 -246t-102 -245.5t-246 -101.5q-143 0 -245 101.5t-102 245.5zM157 335q0 -110 76.5 -188.5t184.5 -78.5q109 0 185.5 78.5t76.5 188.5q0 111 -76.5 189t-185.5 78q-108 0 -184.5 -78t-76.5 -189zM259 335 q0 98 34.5 147.5t120.5 49.5q62 0 137 -26v-91h-62q-5 15 -6 33q-35 8 -58 8t-39 -16q-23 -28 -23 -106q0 -25 1.5 -41t7 -35.5t19 -29.5t34.5 -10q54 0 116 23l19 -74q-82 -29 -146 -29q-56 0 -91 22q-37 23 -50.5 64.5t-13.5 110.5z" />
<glyph unicode="&#xad;" d="M42 196v98h272v-98h-272z" />
<glyph unicode="&#xae;" horiz-adv-x="837" d="M71 335q0 144 102 246t245 102q144 0 246 -102t102 -246t-102 -245.5t-246 -101.5q-143 0 -245 101.5t-102 245.5zM157 335q0 -110 76.5 -188.5t184.5 -78.5q109 0 185.5 78.5t76.5 188.5q0 111 -76.5 189t-185.5 78q-108 0 -184.5 -78t-76.5 -189zM276 195q16 4 31 6 v269q-21 2 -31 6l12 44h156q112 0 112 -90q0 -58 -9.5 -88t-45.5 -44l40 -97q15 -2 31 -6l-12 -45h-80l-56 141h-41v-90q15 -2 31 -6l-12 -45h-114zM383 353h43q24 0 35.5 9.5t13 20t1.5 32.5q0 26 -11 35t-39 9h-43v-106z" />
<glyph unicode="&#xb7;" horiz-adv-x="482" d="M167 249q0 31 21.5 52.5t52.5 21.5t52.5 -21.5t21.5 -52.5t-21.5 -52.5t-52.5 -21.5t-52.5 21.5t-21.5 52.5z" />
<glyph unicode="&#xba;" horiz-adv-x="301" d="M-35 531q0 87 35.5 118.5t120.5 31.5q86 0 120.5 -32t34.5 -118t-35 -117.5t-120 -31.5t-120.5 31t-35.5 118zM68 531q0 -41 12 -56t41 -15t40.5 15t11.5 56t-11.5 56.5t-40.5 15.5t-41 -15.5t-12 -56.5z" />
<glyph unicode="&#xbf;" horiz-adv-x="422" d="M41 -36q0 28 1.5 45t10.5 43.5t27 44.5q29 31 78 41v89h104l1 -153h-23q-41 0 -60 -11q-24 -16 -24 -92q0 -71 23 -89q17 -11 44 -11q35 0 73 6q4 32 11 51l74 -20v-95q-94 -25 -164 -25q-99 0 -139 46q-17 19 -26 43t-10 40.5t-1 46.5zM126 394q0 35 24.5 59.5 t59.5 24.5t60 -24.5t25 -59.5t-25 -59.5t-60 -24.5q-34 0 -59 25t-25 59z" />
<glyph unicode="&#xc1;" horiz-adv-x="688" d="M17 81q24 7 56 11l184 578h170l189 -578q31 -4 55 -11l-21 -81h-192l-22 82q17 6 50 10l-32 99h-235l-28 -99q33 -4 50 -10l-22 -82h-180zM244 282h180l-96 299zM266 756l82 141h129l-129 -141h-82z" />
<glyph unicode="&#xc4;" horiz-adv-x="688" d="M17 81q24 7 56 11l184 578h170l189 -578q31 -4 55 -11l-21 -81h-192l-22 82q17 6 50 10l-32 99h-235l-28 -99q33 -4 50 -10l-22 -82h-180zM189 818q0 26 18.5 44t43.5 18q26 0 44 -18t18 -44t-18 -44t-44 -18q-25 0 -43.5 18t-18.5 44zM244 282h180l-96 299zM375 818 q0 26 18.5 44t43.5 18t43.5 -18t18.5 -44t-18.5 -44t-43.5 -18t-43.5 18t-18.5 44z" />
<glyph unicode="&#xc9;" horiz-adv-x="580" d="M61 81q24 7 56 11v487q-30 2 -56 11l22 80h450v-133l-102 -28q-11 35 -14 70h-178v-193h147q4 31 11 55l81 -21v-159l-81 -22q-7 24 -11 56h-147v-204h186q4 37 14 70l102 -27v-134h-458zM231 756l82 141h129l-129 -141h-82z" />
<glyph unicode="&#xcb;" horiz-adv-x="580" d="M61 81q24 7 56 11v487q-30 2 -56 11l22 80h450v-133l-102 -28q-11 35 -14 70h-178v-193h147q4 31 11 55l81 -21v-159l-81 -22q-7 24 -11 56h-147v-204h186q4 37 14 70l102 -27v-134h-458zM146 818q0 26 18 44t44 18t44 -18t18 -44t-18 -44t-44 -18t-44 18t-18 44z M331 818q0 26 18.5 44t43.5 18t43.5 -18t18.5 -44t-18.5 -44t-43.5 -18t-43.5 18t-18.5 44z" />
<glyph unicode="&#xcd;" horiz-adv-x="352" d="M59 81q24 7 56 11v487q-30 2 -56 11l22 80h190l22 -80q-26 -9 -56 -11v-487q32 -4 56 -11l-22 -81h-190zM98 756l82 141h128l-128 -141h-82z" />
<glyph unicode="&#xcf;" horiz-adv-x="351" d="M21 818q0 26 18.5 44t43.5 18t43.5 -18t18.5 -44t-18.5 -44t-43.5 -18t-43.5 18t-18.5 44zM59 81q24 7 56 11v487q-30 2 -56 11l22 80h190l21 -80q-26 -9 -55 -11v-487q31 -4 55 -11l-21 -81h-190zM206 818q0 26 18 44t44 18t44 -18t18 -44t-18 -44t-44 -18t-44 18 t-18 44z" />
<glyph unicode="&#xd1;" horiz-adv-x="773" d="M53 81q24 7 56 11v487q-30 2 -56 11l22 80h195l293 -544v453q-29 2 -55 11l21 80h173l22 -80q-26 -9 -56 -11v-579h-161l-293 544v-452q32 -4 56 -11l-22 -81h-173zM222 783q25 101 91 101q33 0 76 -24.5t74 -24.5q26 0 40 41l51 -21q-10 -44 -33 -74.5t-57 -30.5 q-38 0 -82.5 25t-68.5 25q-27 0 -41 -37z" />
<glyph unicode="&#xd3;" horiz-adv-x="655" d="M48 335q0 171 46 249q29 49 82.5 74t150.5 25q98 0 151.5 -25t82.5 -74q46 -78 46 -249q0 -169 -46 -249q-29 -49 -82.5 -73.5t-151.5 -24.5t-151 24.5t-82 73.5q-46 78 -46 249zM177 335q0 -125 25 -184q15 -36 43.5 -54t81.5 -18q96 0 126 72q25 59 25 184t-25 184 q-15 36 -44 54.5t-82 18.5t-81.5 -18.5t-43.5 -54.5q-25 -59 -25 -184zM258 756l82 141h129l-129 -141h-82z" />
<glyph unicode="&#xd6;" horiz-adv-x="655" d="M48 335q0 171 46 249q29 49 82.5 74t150.5 25q98 0 151.5 -25t82.5 -74q46 -78 46 -249q0 -169 -46 -249q-29 -49 -82.5 -73.5t-151.5 -24.5t-151 24.5t-82 73.5q-46 78 -46 249zM173 818q0 26 18 44t44 18q25 0 43.5 -18t18.5 -44t-18.5 -44t-43.5 -18q-26 0 -44 18 t-18 44zM177 335q0 -125 25 -184q15 -36 43.5 -54t81.5 -18q96 0 126 72q25 59 25 184t-25 184q-15 36 -44 54.5t-82 18.5t-81.5 -18.5t-43.5 -54.5q-25 -59 -25 -184zM358 818q0 26 18 44t44 18t44 -18t18 -44t-18 -44t-44 -18t-44 18t-18 44z" />
<glyph unicode="&#xda;" horiz-adv-x="720" d="M57 590l22 80h190l22 -80q-26 -9 -56 -11v-381q0 -119 125 -119t125 119v381q-29 2 -55 11l22 80h189l22 -80q-26 -9 -56 -11v-430q0 -71 -63 -116t-184 -45t-184 45t-63 116v430q-30 2 -56 11zM299 756l82 141h129l-129 -141h-82z" />
<glyph unicode="&#xdc;" horiz-adv-x="720" d="M57 590l22 80h190l22 -80q-26 -9 -56 -11v-381q0 -119 125 -119t125 119v381q-29 2 -55 11l22 80h189l22 -80q-26 -9 -56 -11v-430q0 -71 -63 -116t-184 -45t-184 45t-63 116v430q-30 2 -56 11zM205 818q0 26 18.5 44t43.5 18t43.5 -18t18.5 -44t-18.5 -44t-43.5 -18 t-43.5 18t-18.5 44zM391 818q0 26 18 44t44 18q25 0 43.5 -18t18.5 -44t-18.5 -44t-43.5 -18q-26 0 -44 18t-18 44z" />
<glyph unicode="&#xdd;" horiz-adv-x="745" d="M25 590l22 80h209l22 -82q-27 -8 -49 -9l160 -210l147 210q-22 2 -49 9l22 82h189l22 -80q-28 -9 -56 -11l-231 -303v-184q32 -4 56 -11l-22 -81h-195l-21 81q27 7 60 11v184l-230 303q-30 2 -56 11zM295 756l81 141h129l-129 -141h-81z" />
<glyph unicode="&#xe1;" horiz-adv-x="509" d="M39 128q0 91 58 136q62 47 213 15v16q0 21 -0.5 31t-3.5 25t-9.5 22.5t-19 13t-31.5 5.5q-57 0 -144 -29l-22 82q97 33 172 33q173 0 173 -163v-230q35 -5 51 -10l-20 -75h-141v27q-83 -33 -123 -37q-14 -2 -29 -2q-55 0 -89.5 35.5t-34.5 104.5zM158 143q0 -25 14.5 -42 t38.5 -17q14 0 29.5 3.5t39 12t30.5 10.5v84q-89 22 -123 1q-29 -18 -29 -52zM179 552l82 141h129l-129 -141h-82z" />
<glyph unicode="&#xe4;" horiz-adv-x="509" d="M39 128q0 91 58 136q62 47 213 15v16q0 21 -0.5 31t-3.5 25t-9.5 22.5t-19 13t-31.5 5.5q-57 0 -144 -29l-22 82q97 33 172 33q173 0 173 -163v-230q35 -5 51 -10l-20 -75h-141v27q-83 -33 -123 -37q-14 -2 -29 -2q-55 0 -89.5 35.5t-34.5 104.5zM94 614q0 26 18 44 t44 18t44 -18t18 -44t-18 -44t-44 -18t-44 18t-18 44zM158 143q0 -25 14.5 -42t38.5 -17q14 0 29.5 3.5t39 12t30.5 10.5v84q-89 22 -123 1q-29 -18 -29 -52zM279 614q0 26 18.5 44t43.5 18q26 0 44 -18t18 -44t-18 -44t-44 -18q-25 0 -43.5 18t-18.5 44z" />
<glyph unicode="&#xe9;" horiz-adv-x="464" d="M38 233q0 125 46.5 185t148.5 60t148.5 -60t46.5 -185v-39h-270q0 -121 81 -121q52 0 162 38l22 -82q-115 -41 -190 -41q-84 0 -128 35q-40 31 -53.5 77t-13.5 133zM160 279h148q0 27 -5.5 50.5t-23 43.5t-46.5 20q-73 0 -73 -114zM164 552l82 141h128l-128 -141h-82z " />
<glyph unicode="&#xeb;" horiz-adv-x="464" d="M38 233q0 125 46.5 185t148.5 60t148.5 -60t46.5 -185v-39h-270q0 -121 81 -121q52 0 162 38l22 -82q-115 -41 -190 -41q-84 0 -128 35q-40 31 -53.5 77t-13.5 133zM78 614q0 26 18 44t44 18t44 -18t18 -44t-18 -44t-44 -18t-44 18t-18 44zM160 279h148q0 27 -5.5 50.5 t-23 43.5t-46.5 20q-73 0 -73 -114zM264 614q0 26 18 44t44 18t44 -18t18 -44t-18 -44t-44 -18t-44 18t-18 44z" />
<glyph unicode="&#xed;" horiz-adv-x="304" d="M47 75q18 6 51 10v296q-33 4 -51 10l20 75h146v-381q33 -4 51 -10l-20 -75h-177zM78 552l82 141h128l-128 -141h-82z" />
<glyph unicode="&#xef;" horiz-adv-x="305" d="M-8 614q0 26 18 44t44 18t44 -18t18 -44t-18 -44t-44 -18t-44 18t-18 44zM47 75q16 5 51 10v296q-35 5 -51 10l20 75h146v-381q34 -4 52 -10l-20 -75h-178zM177 614q0 26 18.5 44t43.5 18q26 0 44 -18t18 -44t-18 -44t-44 -18q-25 0 -43.5 18t-18.5 44z" />
<glyph unicode="&#xf1;" horiz-adv-x="572" d="M47 75q18 6 51 10v296q-33 4 -51 10l20 75h140v-38q100 50 149 50q64 0 97.5 -32.5t33.5 -94.5v-266q35 -5 52 -10l-20 -75h-147v321q0 22 -11 39.5t-39 17.5q-38 0 -109 -32v-261q33 -4 51 -10l-20 -75h-177zM121 579q23 101 90 101q33 0 76.5 -25t74.5 -25q26 0 40 42 l51 -21q-26 -105 -90 -105q-38 0 -82.5 24.5t-69.5 24.5q-26 0 -41 -37z" />
<glyph unicode="&#xf3;" horiz-adv-x="492" d="M38 233q0 119 34 176q43 69 174 69t174 -69q34 -57 34 -176t-34 -176q-43 -69 -174 -69t-174 69q-34 57 -34 176zM159 233q0 -78 14 -115q18 -45 73 -45t73 45q14 37 14 115t-14 115q-18 45 -73 45t-73 -45q-14 -37 -14 -115zM177 552l82 141h128l-128 -141h-82z" />
<glyph unicode="&#xf6;" horiz-adv-x="492" d="M38 233q0 119 34 176q43 69 174 69t174 -69q34 -57 34 -176t-34 -176q-43 -69 -174 -69t-174 69q-34 57 -34 176zM91 614q0 26 18.5 44t43.5 18q26 0 44 -18t18 -44t-18 -44t-44 -18q-25 0 -43.5 18t-18.5 44zM159 233q0 -78 14 -115q18 -45 73 -45t73 45q14 37 14 115 t-14 115q-18 45 -73 45t-73 -45q-14 -37 -14 -115zM277 614q0 26 18.5 44t43.5 18t43.5 -18t18.5 -44t-18.5 -44t-43.5 -18t-43.5 18t-18.5 44z" />
<glyph unicode="&#xfa;" horiz-adv-x="570" d="M38 391l20 75h146v-321q0 -21 11 -39t38 -18q39 0 110 32v261q-35 5 -51 10l20 75h146v-381q35 -5 52 -10l-20 -75h-141v38q-100 -50 -149 -50q-64 0 -97.5 32.5t-33.5 94.5v266q-33 4 -51 10zM206 552l82 141h128l-128 -141h-82z" />
<glyph unicode="&#xfc;" horiz-adv-x="570" d="M38 391l20 75h146v-321q0 -21 11 -39t38 -18q39 0 110 32v261q-35 5 -51 10l20 75h146v-381q35 -5 52 -10l-20 -75h-141v38q-100 -50 -149 -50q-64 0 -97.5 32.5t-33.5 94.5v266q-33 4 -51 10zM120 614q0 26 18 44t44 18t44 -18t18 -44t-18 -44t-44 -18t-44 18t-18 44z M305 614q0 26 18.5 44t44.5 18t44 -18t18 -44t-18 -44t-44 -18t-44.5 18t-18.5 44z" />
<glyph unicode="&#xfd;" horiz-adv-x="551" d="M16 391l20 75h122l127 -345l86 260q-18 1 -45 8l20 77h169l20 -75q-16 -5 -51 -10l-191 -522q-19 -46 -59 -71t-94 -25q-50 0 -109 26l22 82q53 -21 81 -21q39 0 58 42l40 108h-23l-142 381q-33 4 -51 10zM198 552l82 141h128l-128 -141h-82z" />
<glyph unicode="&#xff;" horiz-adv-x="551" d="M16 391l20 75h122l127 -345l86 260q-18 1 -45 8l20 77h169l20 -75q-16 -5 -51 -10l-191 -522q-19 -46 -59 -71t-94 -25q-50 0 -109 26l22 82q53 -21 81 -21q39 0 58 42l40 108h-23l-142 381q-33 4 -51 10zM121 614q0 26 18.5 44t43.5 18t43.5 -18t18.5 -44t-18.5 -44 t-43.5 -18t-43.5 18t-18.5 44zM306 614q0 26 18 44t44 18t44 -18t18 -44t-18 -44t-44 -18t-44 18t-18 44z" />
<glyph unicode="&#x178;" horiz-adv-x="745" d="M25 590l22 80h209l22 -82q-27 -8 -49 -9l160 -210l147 210q-22 2 -49 9l22 82h189l22 -80q-28 -9 -56 -11l-231 -303v-184q32 -4 56 -11l-22 -81h-195l-21 81q27 7 60 11v184l-230 303q-30 2 -56 11zM217 818q0 26 18.5 44t43.5 18q26 0 44.5 -18t18.5 -44t-18.5 -44 t-44.5 -18q-25 0 -43.5 18t-18.5 44zM403 818q0 26 18.5 44t43.5 18t43.5 -18t18.5 -44t-18.5 -44t-43.5 -18t-43.5 18t-18.5 44z" />
<glyph unicode="&#x2000;" horiz-adv-x="448" />
<glyph unicode="&#x2001;" horiz-adv-x="897" />
<glyph unicode="&#x2002;" horiz-adv-x="448" />
<glyph unicode="&#x2003;" horiz-adv-x="897" />
<glyph unicode="&#x2004;" horiz-adv-x="299" />
<glyph unicode="&#x2005;" horiz-adv-x="224" />
<glyph unicode="&#x2006;" horiz-adv-x="149" />
<glyph unicode="&#x2007;" horiz-adv-x="149" />
<glyph unicode="&#x2008;" horiz-adv-x="112" />
<glyph unicode="&#x2009;" horiz-adv-x="179" />
<glyph unicode="&#x200a;" horiz-adv-x="49" />
<glyph unicode="&#x2010;" d="M42 196v98h272v-98h-272z" />
<glyph unicode="&#x2011;" d="M42 196v98h272v-98h-272z" />
<glyph unicode="&#x2012;" d="M42 196v98h272v-98h-272z" />
<glyph unicode="&#x2013;" d="M42 196v98h272v-98h-272z" />
<glyph unicode="&#x2014;" horiz-adv-x="1084" d="M42 196v98h1000v-98h-1000z" />
<glyph unicode="&#x2018;" horiz-adv-x="251" d="M31 463l58 218h131l-118 -218h-71z" />
<glyph unicode="&#x2019;" horiz-adv-x="251" d="M31 463l58 218h131l-118 -218h-71z" />
<glyph unicode="&#x201c;" horiz-adv-x="436" d="M31 463l58 218h131l-118 -218h-71zM216 463l58 218h131l-118 -218h-71z" />
<glyph unicode="&#x201d;" horiz-adv-x="436" d="M31 463l58 218h131l-118 -218h-71zM216 463l58 218h131l-118 -218h-71z" />
<glyph unicode="&#x202f;" horiz-adv-x="179" />
<glyph unicode="&#x205f;" horiz-adv-x="224" />
<glyph unicode="&#x20ac;" horiz-adv-x="569" d="M38 217v62h394v-62h-204q9 -72 44 -110q36 -34 87 -34q53 0 108 11q2 29 10 51l74 -20v-96q-108 -31 -196 -31q-138 0 -198 78q-44 60 -52 151h-67zM38 342v62h67q8 88 52 147q60 78 198 78q88 0 196 -31v-96l-74 -20q-8 22 -10 51q-53 12 -108 12q-52 0 -87 -35 q-34 -36 -44 -106h204v-62h-394z" />
<glyph unicode="&#x25fc;" horiz-adv-x="465" d="M0 0v465h465v-465h-465z" />
</font>
</defs>
</svg>
